<svg width="321" height="90" viewBox="0 0 321 90" fill="none" xmlns="http://www.w3.org/2000/svg">
<path d="M27.3839 7.81299H34.0179V57.385H27.3839V54.391C24.7819 56.935 21.8369 58.206 18.5499 58.206C14.6359 58.206 11.3879 56.778 8.80594 53.921C6.24294 51.005 4.96094 47.366 4.96094 43.003C4.96094 38.737 6.24294 35.176 8.80594 32.319C11.3489 29.443 14.5489 28.005 18.4039 28.005C21.7489 28.005 24.7429 29.375 27.3839 32.114V7.81299ZM11.7109 43.003C11.7109 45.743 12.4439 47.973 13.9129 49.694C15.4189 51.436 17.3169 52.306 19.6069 52.306C22.0519 52.306 24.0279 51.465 25.5349 49.782C27.0409 48.04 27.7949 45.83 27.7949 43.149C27.7949 40.468 27.0419 38.258 25.5349 36.516C24.0279 34.814 22.0719 33.963 19.6649 33.963C17.3949 33.963 15.4969 34.824 13.9719 36.546C12.4639 38.288 11.7109 40.44 11.7109 43.003Z" fill="#18181B"/>
<path d="M137.489 7.81299H144.122V57.385H137.489V54.391C134.887 56.935 131.942 58.206 128.655 58.206C124.741 58.206 121.493 56.778 118.911 53.921C116.348 51.005 115.066 47.366 115.066 43.003C115.066 38.737 116.348 35.176 118.911 32.319C121.454 29.443 124.654 28.005 128.509 28.005C131.854 28.005 134.848 29.375 137.489 32.114V7.81299ZM121.816 43.003C121.816 45.743 122.549 47.973 124.018 49.694C125.524 51.436 127.422 52.306 129.712 52.306C132.157 52.306 134.133 51.465 135.64 49.782C137.147 48.04 137.9 45.83 137.9 43.149C137.9 40.468 137.147 38.258 135.64 36.516C134.133 34.814 132.177 33.963 129.77 33.963C127.499 33.963 125.602 34.824 124.076 36.546C122.569 38.288 121.816 40.44 121.816 43.003Z" fill="#18181B"/>
<path d="M159.663 7.81299H153.059V57.385H159.663V7.81299Z" fill="#18181B"/>
<path d="M194.661 44.6469H174.175C174.353 46.9949 175.114 48.8639 176.466 50.2529C177.816 51.6229 179.546 52.3069 181.659 52.3069C183.304 52.3069 184.663 51.9159 185.739 51.1329C186.796 50.3499 187.999 48.9029 189.348 46.7889L194.924 49.8999C194.065 51.3669 193.154 52.6249 192.195 53.6709C191.236 54.7169 190.209 55.5779 189.113 56.2539C188.017 56.9289 186.834 57.4229 185.562 57.7359C184.291 58.0489 182.91 58.2049 181.423 58.2049C177.157 58.2049 173.734 56.8349 171.152 54.0959C168.568 51.3369 167.277 47.6779 167.277 43.1189C167.277 38.5989 168.529 34.9399 171.035 32.1419C173.558 29.3829 176.904 28.0029 181.072 28.0029C185.279 28.0029 188.605 29.3429 191.051 32.0239C193.477 34.6849 194.69 38.3739 194.69 43.0889L194.661 44.6469ZM187.882 39.2469C186.962 35.7249 184.741 33.9639 181.22 33.9639C180.417 33.9639 179.665 34.0869 178.96 34.3309C178.255 34.5759 177.614 34.9289 177.038 35.3879C176.46 35.8479 175.966 36.4009 175.556 37.0459C175.144 37.6919 174.831 38.4259 174.617 39.2479H187.882V39.2469Z" fill="#18181B"/>
<path d="M209.087 7.81299V32.115C211.73 29.376 214.722 28.006 218.067 28.006C221.922 28.006 225.131 29.444 227.694 32.32C230.258 35.177 231.54 38.738 231.54 43.003C231.54 47.406 230.249 51.045 227.665 53.921C225.102 56.778 221.864 58.206 217.95 58.206C214.643 58.206 211.688 56.935 209.087 54.391V57.385H202.483V7.81299H209.087ZM224.79 43.297C224.79 40.557 224.046 38.327 222.56 36.605C221.052 34.844 219.164 33.963 216.894 33.963C214.468 33.963 212.492 34.814 210.966 36.516C209.458 38.199 208.706 40.391 208.706 43.091C208.706 45.87 209.448 48.091 210.936 49.754C212.422 51.456 214.379 52.307 216.805 52.307C219.094 52.307 220.993 51.456 222.498 49.754C224.026 48.032 224.79 45.879 224.79 43.297Z" fill="#18181B"/>
<path d="M245.73 7.81299H239.126V57.385H245.73V7.81299Z" fill="#18181B"/>
<path d="M261.3 28.798V45.205C261.3 49.94 263.167 52.308 266.905 52.308C270.641 52.308 272.51 49.941 272.51 45.205V28.798H279.114V45.351C279.114 47.641 278.831 49.617 278.264 51.28C277.715 52.767 276.766 54.108 275.416 55.301C273.186 57.238 270.348 58.207 266.904 58.207C263.48 58.207 260.652 57.238 258.422 55.301C257.053 54.108 256.084 52.767 255.516 51.28C254.969 49.95 254.696 47.974 254.696 45.351V28.798H261.3Z" fill="#18181B"/>
<path d="M314.085 44.6469H293.599C293.775 46.9949 294.538 48.8639 295.888 50.2529C297.238 51.6229 298.97 52.3069 301.083 52.3069C302.726 52.3069 304.087 51.9159 305.163 51.1329C306.22 50.3499 307.423 48.9029 308.772 46.7889L314.348 49.8999C313.487 51.3669 312.577 52.6249 311.619 53.6709C310.66 54.7169 309.633 55.5779 308.537 56.2539C307.441 56.9289 306.258 57.4229 304.986 57.7359C303.713 58.0489 302.334 58.2049 300.847 58.2049C296.581 58.2049 293.158 56.8349 290.574 54.0959C287.992 51.3369 286.701 47.6779 286.701 43.1189C286.701 38.5989 287.953 34.9399 290.457 32.1419C292.98 29.3829 296.328 28.0029 300.494 28.0029C304.701 28.0029 308.027 29.3429 310.474 32.0239C312.9 34.6849 314.113 38.3739 314.113 43.0889L314.085 44.6469ZM307.306 39.2469C306.386 35.7249 304.165 33.9639 300.644 33.9639C299.841 33.9639 299.087 34.0869 298.384 34.3309C297.679 34.5759 297.038 34.9289 296.46 35.3879C295.884 35.8479 295.39 36.4009 294.978 37.0459C294.568 37.6919 294.255 38.4259 294.039 39.2479H307.306V39.2469Z" fill="#18181B"/>
<path d="M5.28711 73.99H6.83511C7.41711 73.99 7.96111 74.072 8.46711 74.235C8.97311 74.399 9.42011 74.642 9.80611 74.966C10.1931 75.29 10.4941 75.697 10.7091 76.188C10.9241 76.679 11.0321 77.245 11.0321 77.885C11.0321 78.54 10.9261 79.117 10.7151 79.619C10.5031 80.12 10.2041 80.538 9.81711 80.872C9.43011 81.206 8.98011 81.455 8.46711 81.619C7.95511 81.783 7.40111 81.865 6.80511 81.865H5.28711V73.99ZM6.21911 80.966H6.54711C7.04911 80.966 7.51211 80.912 7.93611 80.804C8.36011 80.696 8.73311 80.524 9.05711 80.287C9.38111 80.051 9.63611 79.736 9.82111 79.342C10.0061 78.948 10.0991 78.477 10.0991 77.927C10.0991 77.37 10.0061 76.895 9.82111 76.501C9.63611 76.108 9.38111 75.793 9.05711 75.556C8.73311 75.319 8.35811 75.149 7.93111 75.044C7.50511 74.94 7.04311 74.887 6.54711 74.887H6.21911V80.966Z" fill="#18181B"/>
<path d="M19.2064 81.864H18.2734V73.99H19.2064V81.864Z" fill="#18181B"/>
<path d="M33.7712 77.896V78.209C33.7712 78.745 33.6852 79.247 33.5132 79.713C33.3412 80.18 33.0962 80.587 32.7792 80.935C32.4622 81.284 32.0852 81.553 31.6482 81.745C31.2112 81.937 30.7382 82.032 30.2292 82.032C29.7202 82.032 29.2332 81.924 28.7712 81.708C28.3092 81.492 27.9032 81.193 27.5562 80.81C27.2092 80.427 26.9372 79.989 26.7432 79.494C26.5482 79 26.4512 78.485 26.4512 77.949C26.4512 77.392 26.5502 76.863 26.7482 76.362C26.9472 75.861 27.2252 75.419 27.5812 75.035C27.9382 74.652 28.3532 74.355 28.8262 74.142C29.2992 73.93 29.8002 73.823 30.3292 73.823C30.9182 73.823 31.4812 73.957 32.0212 74.225C32.5602 74.493 33.0112 74.867 33.3752 75.348L32.7202 76.006C32.4492 75.616 32.1012 75.305 31.6782 75.071C31.2552 74.838 30.8182 74.721 30.3682 74.721C29.9572 74.721 29.5692 74.803 29.2022 74.966C28.8352 75.129 28.5162 75.36 28.2442 75.655C27.9732 75.951 27.7612 76.294 27.6092 76.684C27.4572 77.074 27.3812 77.484 27.3812 77.916C27.3812 78.32 27.4552 78.715 27.6042 79.102C27.7532 79.489 27.9612 79.835 28.2292 80.141C28.4972 80.448 28.8092 80.689 29.1672 80.867C29.5242 81.045 29.8982 81.134 30.2882 81.134C30.5792 81.134 30.8692 81.073 31.1562 80.951C31.4442 80.829 31.7052 80.659 31.9402 80.439C32.1752 80.219 32.3652 79.969 32.5102 79.687C32.6562 79.405 32.7322 79.107 32.7392 78.794H30.8042V77.896H33.7712Z" fill="#18181B"/>
<path d="M41.9359 81.864H41.0029V73.99H41.9359V81.864Z" fill="#18181B"/>
<path d="M51.6983 81.864H50.7653V74.888H48.9893V73.99H53.4733V74.888H51.6973V81.864H51.6983Z" fill="#18181B"/>
<path d="M61.2017 79.89L60.3487 81.864H59.3467L62.9187 73.656L66.4907 81.864H65.4887L64.6347 79.89H61.2017ZM62.9177 75.807L61.5877 78.992H64.2467L62.9177 75.807Z" fill="#18181B"/>
<path d="M74.3969 80.966H76.6689V81.864H73.4639V73.99H74.3969V80.966V80.966Z" fill="#18181B"/>
<path d="M96.1643 75.483C96.0253 75.233 95.8593 75.046 95.6683 74.924C95.4763 74.802 95.2413 74.741 94.9633 74.741C94.6463 74.741 94.3583 74.845 94.1003 75.054C93.8423 75.263 93.7133 75.531 93.7133 75.858C93.7133 76.136 93.8123 76.364 94.0113 76.542C94.2093 76.719 94.4573 76.868 94.7553 76.986L95.2913 77.205C95.5753 77.324 95.8283 77.452 96.0503 77.591C96.2723 77.731 96.4653 77.892 96.6313 78.077C96.7963 78.262 96.9233 78.477 97.0133 78.724C97.1033 78.971 97.1473 79.255 97.1473 79.575C97.1473 79.923 97.0863 80.249 96.9633 80.552C96.8403 80.855 96.6713 81.117 96.4523 81.341C96.2343 81.564 95.9793 81.734 95.6883 81.853C95.3973 81.971 95.0863 82.03 94.7553 82.03C94.4583 82.03 94.1763 81.976 93.9123 81.868C93.6483 81.76 93.4123 81.605 93.2083 81.403C93.0033 81.201 92.8343 80.966 92.7023 80.698C92.5703 80.43 92.4843 80.139 92.4443 79.826L93.3863 79.618C93.3863 80.05 93.5273 80.406 93.8083 80.688C94.0893 80.97 94.4323 81.111 94.8353 81.111C95.2323 81.111 95.5613 80.96 95.8223 80.657C96.0833 80.354 96.2143 79.994 96.2143 79.576C96.2143 79.193 96.0783 78.873 95.8073 78.615C95.7013 78.511 95.5743 78.417 95.4253 78.333C95.2763 78.249 95.1093 78.166 94.9243 78.083L94.4083 77.853C94.1633 77.742 93.9493 77.628 93.7633 77.514C93.5773 77.399 93.4103 77.264 93.2623 77.107C93.1143 76.95 92.9963 76.769 92.9103 76.564C92.8243 76.358 92.7813 76.124 92.7813 75.859C92.7813 75.553 92.8413 75.273 92.9603 75.018C93.0793 74.764 93.2433 74.548 93.4513 74.371C93.6593 74.194 93.8953 74.058 94.1603 73.964C94.4253 73.87 94.6993 73.823 94.9843 73.823C95.4013 73.823 95.7743 73.926 96.1053 74.131C96.4363 74.337 96.7043 74.631 96.9093 75.014L96.1643 75.483Z" fill="#18181B"/>
<path d="M106.67 81.864H105.737V74.888H103.961V73.99H108.445V74.888H106.669V81.864H106.67Z" fill="#18181B"/>
<path d="M120.174 81.864H119.043L116.84 78.532H116.453V81.864H115.52V73.99H116.651C117.088 73.99 117.46 74.011 117.767 74.053C118.075 74.095 118.361 74.196 118.625 74.356C118.929 74.544 119.169 74.809 119.344 75.15C119.519 75.491 119.607 75.853 119.607 76.236C119.607 76.807 119.441 77.299 119.111 77.714C118.78 78.129 118.347 78.37 117.812 78.44L120.174 81.864ZM116.454 77.718H116.751C117.029 77.718 117.28 77.699 117.505 77.66C117.73 77.622 117.936 77.552 118.125 77.452C118.313 77.351 118.462 77.205 118.571 77.013C118.68 76.822 118.735 76.576 118.735 76.277C118.735 75.985 118.675 75.743 118.556 75.551C118.437 75.36 118.28 75.215 118.085 75.117C117.89 75.02 117.677 74.954 117.445 74.919C117.213 74.884 116.965 74.867 116.701 74.867H116.453V77.718H116.454Z" fill="#18181B"/>
<path d="M128.308 79.89L127.455 81.864H126.453L130.025 73.656L133.597 81.864H132.595L131.741 79.89H128.308ZM130.024 75.807L128.694 78.992H131.353L130.024 75.807Z" fill="#18181B"/>
<path d="M142.158 81.864H141.225V74.888H139.449V73.99H143.933V74.888H142.157V81.864H142.158Z" fill="#18181B"/>
<path d="M151.008 73.99H155.026V74.888H151.941V77.092H154.937V77.99H151.941V80.967H155.026V81.865H151.008V73.99Z" fill="#18181B"/>
<path d="M169.332 77.896V78.209C169.332 78.745 169.246 79.247 169.074 79.713C168.902 80.18 168.656 80.587 168.34 80.935C168.022 81.284 167.645 81.553 167.209 81.745C166.771 81.936 166.299 82.032 165.789 82.032C165.281 82.032 164.795 81.924 164.332 81.708C163.869 81.492 163.463 81.193 163.116 80.81C162.769 80.427 162.498 79.989 162.303 79.494C162.108 79 162.01 78.485 162.01 77.949C162.01 77.392 162.11 76.863 162.308 76.362C162.506 75.861 162.785 75.419 163.141 75.035C163.498 74.652 163.913 74.355 164.387 74.142C164.86 73.93 165.36 73.823 165.889 73.823C166.477 73.823 167.041 73.957 167.58 74.225C168.119 74.493 168.57 74.867 168.935 75.348L168.279 76.006C168.008 75.616 167.662 75.305 167.238 75.071C166.814 74.838 166.379 74.721 165.927 74.721C165.517 74.721 165.13 74.803 164.763 74.966C164.396 75.129 164.076 75.36 163.805 75.655C163.534 75.951 163.322 76.294 163.17 76.684C163.018 77.074 162.942 77.484 162.942 77.916C162.942 78.32 163.016 78.715 163.165 79.102C163.314 79.489 163.522 79.835 163.79 80.141C164.058 80.448 164.37 80.689 164.728 80.867C165.085 81.045 165.458 81.134 165.849 81.134C166.14 81.134 166.429 81.073 166.716 80.951C167.005 80.829 167.265 80.659 167.499 80.439C167.735 80.219 167.925 79.969 168.071 79.687C168.216 79.405 168.292 79.107 168.298 78.794H166.364V77.896H169.332Z" fill="#18181B"/>
<path d="M175.582 73.99H176.654L178.49 77.352L180.324 73.99H181.396L178.955 78.439V81.864H178.023V78.439L175.582 73.99Z" fill="#18181B"/>
<path d="M203.045 75.493C202.779 75.243 202.475 75.051 202.127 74.919C201.779 74.787 201.428 74.721 201.07 74.721C200.66 74.721 200.275 74.804 199.914 74.971C199.553 75.138 199.238 75.371 198.967 75.671C198.696 75.971 198.487 76.315 198.336 76.705C198.188 77.095 198.113 77.506 198.113 77.937C198.113 78.362 198.187 78.767 198.336 79.154C198.486 79.54 198.693 79.883 198.961 80.183C199.231 80.482 199.543 80.715 199.899 80.883C200.256 81.05 200.641 81.133 201.051 81.133C201.414 81.133 201.768 81.063 202.112 80.924C202.456 80.785 202.766 80.583 203.046 80.319V81.478C202.761 81.652 202.444 81.788 202.099 81.885C201.751 81.982 201.411 82.031 201.081 82.031C200.558 82.031 200.06 81.928 199.583 81.723C199.106 81.518 198.688 81.227 198.327 80.851C197.968 80.475 197.686 80.04 197.485 79.546C197.282 79.052 197.182 78.526 197.182 77.969C197.182 77.398 197.284 76.861 197.489 76.356C197.694 75.851 197.981 75.407 198.346 75.024C198.713 74.641 199.139 74.345 199.621 74.136C200.103 73.927 200.617 73.823 201.16 73.823C201.496 73.823 201.828 73.867 202.152 73.954C202.474 74.041 202.773 74.175 203.045 74.356V75.493V75.493Z" fill="#18181B"/>
<path d="M215.355 74.141C215.832 74.353 216.25 74.649 216.611 75.029C216.97 75.408 217.254 75.849 217.459 76.35C217.664 76.851 217.768 77.377 217.768 77.927C217.768 78.498 217.666 79.036 217.465 79.54C217.262 80.045 216.983 80.483 216.621 80.856C216.259 81.229 215.842 81.518 215.365 81.723C214.89 81.929 214.385 82.031 213.847 82.031C213.312 82.031 212.806 81.928 212.329 81.723C211.852 81.518 211.434 81.229 211.073 80.856C210.714 80.483 210.432 80.045 210.231 79.54C210.028 79.036 209.928 78.498 209.928 77.927C209.928 77.377 210.03 76.851 210.235 76.35C210.44 75.849 210.723 75.409 211.085 75.029C211.444 74.65 211.862 74.354 212.339 74.141C212.816 73.928 213.318 73.822 213.847 73.822C214.376 73.822 214.879 73.929 215.355 74.141ZM214.994 80.872C215.353 80.712 215.674 80.486 215.951 80.193C216.228 79.9 216.445 79.56 216.601 79.17C216.755 78.78 216.833 78.366 216.833 77.927C216.833 77.495 216.761 77.086 216.614 76.7C216.469 76.313 216.262 75.972 215.995 75.677C215.728 75.382 215.409 75.151 215.042 74.988C214.675 74.825 214.276 74.742 213.847 74.742C213.418 74.742 213.019 74.824 212.652 74.988C212.285 75.152 211.968 75.382 211.699 75.677C211.431 75.973 211.224 76.314 211.08 76.7C210.934 77.086 210.861 77.495 210.861 77.927C210.861 78.365 210.939 78.78 211.095 79.17C211.249 79.56 211.466 79.901 211.743 80.193C212.022 80.485 212.341 80.712 212.702 80.872C213.061 81.032 213.444 81.112 213.847 81.112C214.252 81.112 214.633 81.032 214.994 80.872Z" fill="#18181B"/>
<path d="M224.93 73.614L230.545 79.807V73.99H231.479V82.188L225.864 75.995V81.864H224.93V73.614Z" fill="#18181B"/>
<path d="M242.471 75.483C242.332 75.233 242.166 75.046 241.975 74.924C241.782 74.802 241.547 74.741 241.27 74.741C240.952 74.741 240.665 74.845 240.407 75.054C240.149 75.263 240.02 75.531 240.02 75.858C240.02 76.136 240.12 76.364 240.317 76.542C240.516 76.719 240.764 76.868 241.061 76.986L241.598 77.205C241.881 77.324 242.135 77.452 242.356 77.591C242.579 77.731 242.772 77.892 242.936 78.077C243.102 78.262 243.229 78.477 243.319 78.724C243.409 78.971 243.454 79.255 243.454 79.575C243.454 79.923 243.391 80.249 243.27 80.552C243.147 80.855 242.977 81.117 242.758 81.341C242.539 81.564 242.285 81.734 241.994 81.853C241.703 81.971 241.392 82.03 241.06 82.03C240.763 82.03 240.482 81.976 240.218 81.868C239.952 81.76 239.718 81.605 239.513 81.403C239.308 81.201 239.14 80.966 239.007 80.698C238.874 80.43 238.788 80.139 238.749 79.826L239.69 79.618C239.69 80.05 239.831 80.406 240.112 80.688C240.393 80.97 240.735 81.111 241.139 81.111C241.535 81.111 241.866 80.96 242.125 80.657C242.387 80.354 242.518 79.994 242.518 79.576C242.518 79.193 242.383 78.873 242.112 78.615C242.007 78.511 241.878 78.417 241.729 78.333C241.58 78.249 241.413 78.166 241.229 78.083L240.713 77.853C240.467 77.742 240.252 77.628 240.067 77.514C239.883 77.399 239.715 77.264 239.567 77.107C239.419 76.95 239.301 76.769 239.215 76.564C239.127 76.358 239.086 76.124 239.086 75.859C239.086 75.553 239.145 75.273 239.264 75.018C239.383 74.764 239.547 74.548 239.754 74.371C239.963 74.194 240.199 74.058 240.465 73.964C240.729 73.87 241.004 73.823 241.287 73.823C241.705 73.823 242.078 73.926 242.408 74.131C242.738 74.337 243.008 74.631 243.213 75.014L242.471 75.483Z" fill="#18181B"/>
<path d="M251.618 73.99V78.637C251.618 78.985 251.645 79.304 251.702 79.593C251.759 79.882 251.854 80.141 251.989 80.371C252.126 80.6 252.313 80.782 252.55 80.914C252.788 81.046 253.079 81.112 253.423 81.112C253.767 81.112 254.06 81.046 254.296 80.914C254.534 80.782 254.722 80.601 254.857 80.371C254.994 80.141 255.089 79.882 255.146 79.593C255.201 79.304 255.23 78.986 255.23 78.637V73.99H256.162V78.971C256.162 79.403 256.099 79.806 255.974 80.182C255.849 80.558 255.667 80.883 255.433 81.158C255.199 81.433 254.91 81.647 254.57 81.801C254.23 81.954 253.847 82.03 253.424 82.03C253.002 82.03 252.621 81.953 252.283 81.801C251.947 81.648 251.658 81.432 251.42 81.154C251.182 80.876 251 80.55 250.875 80.177C250.75 79.804 250.686 79.403 250.686 78.971V73.99H251.618Z" fill="#18181B"/>
<path d="M264.732 80.966H267.005V81.864H263.8V73.99H264.732V80.966V80.966Z" fill="#18181B"/>
<path d="M275.498 81.864H274.564V74.888H272.789V73.99H277.273V74.888H275.498V81.864Z" fill="#18181B"/>
<path d="M285.25 81.864H284.316V73.99H285.25V81.864Z" fill="#18181B"/>
<path d="M292.908 73.614L298.523 79.807V73.99H299.457V82.188L293.842 75.995V81.864H292.908V73.614Z" fill="#18181B"/>
<path d="M314.021 77.896V78.209C314.021 78.745 313.935 79.247 313.763 79.713C313.591 80.18 313.345 80.587 313.029 80.935C312.711 81.284 312.334 81.553 311.898 81.745C311.46 81.936 310.988 82.032 310.478 82.032C309.968 82.032 309.484 81.924 309.021 81.708C308.556 81.492 308.152 81.193 307.804 80.81C307.458 80.427 307.187 79.989 306.991 79.494C306.796 79 306.698 78.485 306.698 77.949C306.698 77.392 306.798 76.863 306.995 76.362C307.194 75.861 307.472 75.419 307.829 75.035C308.186 74.652 308.6 74.355 309.073 74.142C309.548 73.93 310.048 73.823 310.577 73.823C311.165 73.823 311.729 73.957 312.268 74.225C312.807 74.493 313.258 74.867 313.623 75.348L312.967 76.006C312.696 75.616 312.35 75.305 311.926 75.071C311.502 74.838 311.067 74.721 310.615 74.721C310.205 74.721 309.816 74.803 309.451 74.966C309.084 75.13 308.763 75.36 308.492 75.655C308.221 75.95 308.01 76.294 307.857 76.684C307.705 77.074 307.628 77.484 307.628 77.916C307.628 78.32 307.704 78.715 307.853 79.102C308.002 79.489 308.21 79.835 308.478 80.141C308.746 80.448 309.058 80.689 309.416 80.867C309.773 81.045 310.146 81.134 310.537 81.134C310.828 81.134 311.117 81.073 311.404 80.951C311.693 80.829 311.953 80.659 312.187 80.439C312.423 80.219 312.613 79.969 312.759 79.687C312.904 79.405 312.98 79.107 312.986 78.794H311.052V77.896H314.021Z" fill="#18181B"/>
<path d="M88.1991 24.873L72.5561 40.515L60.4331 52.639C58.8691 54.203 57.3041 52.639 57.3041 52.639L48.7011 44.035C48.7011 44.035 47.1371 42.471 48.7011 40.906L57.3041 32.303C58.8681 30.739 60.4331 32.303 60.4331 32.303L63.1431 35.013C64.2191 36.088 65.9781 36.088 67.0541 35.013C68.1301 33.937 68.1301 32.178 67.0541 31.102L60.8241 24.872C60.5551 24.603 60.2431 24.402 59.9101 24.267C59.8271 24.233 59.7421 24.204 59.6571 24.179C59.4001 24.103 59.1341 24.066 58.8681 24.066C58.1601 24.066 57.4511 24.335 56.9131 24.872L41.2701 40.515C40.1951 41.591 40.1951 43.35 41.2701 44.426L56.9131 60.069C57.9881 61.145 59.7481 61.145 60.8241 60.069L76.4671 44.426L88.5901 32.303C90.1541 30.739 91.7191 32.303 91.7191 32.303L100.323 40.906C100.323 40.906 101.887 42.47 100.323 44.035L91.7191 52.639C90.1551 54.203 88.5901 52.639 88.5901 52.639L85.8261 49.875C84.7501 48.799 82.9911 48.799 81.9151 49.875C80.8391 50.95 80.8391 52.71 81.9151 53.785L88.1991 60.069C89.2741 61.145 91.0341 61.145 92.1101 60.069L107.753 44.426C108.829 43.35 108.829 41.591 107.753 40.515L92.1091 24.873C91.0341 23.797 89.2741 23.797 88.1991 24.873Z" fill="#006ADA"/>
</svg>
