<svg width="1976" height="1332" viewBox="0 0 1976 1332" fill="none" xmlns="http://www.w3.org/2000/svg">
<circle cx="1614.64" cy="736.814" r="7.5" transform="rotate(30 1614.64 736.814)" fill="#0073DA" fill-opacity="0.7"/>
<circle cx="1653.62" cy="759.314" r="7.5" transform="rotate(30 1653.62 759.314)" fill="#0073DA" fill-opacity="0.7"/>
<circle cx="1692.59" cy="781.814" r="7.5" transform="rotate(30 1692.59 781.814)" fill="#0073DA" fill-opacity="0.7"/>
<circle cx="1731.56" cy="804.314" r="7.5" transform="rotate(30 1731.56 804.314)" fill="#0073DA" fill-opacity="0.7"/>
<circle cx="1770.53" cy="826.814" r="7.5" transform="rotate(30 1770.53 826.814)" fill="#0073DA" fill-opacity="0.7"/>
<circle cx="1809.5" cy="849.314" r="7.5" transform="rotate(30 1809.5 849.314)" fill="#0073DA" fill-opacity="0.7"/>
<circle cx="1848.47" cy="871.814" r="7.5" transform="rotate(30 1848.47 871.814)" fill="#0073DA" fill-opacity="0.7"/>
<circle cx="1887.44" cy="894.314" r="7.5" transform="rotate(30 1887.44 894.314)" fill="#0073DA" fill-opacity="0.7"/>
<circle cx="1926.41" cy="916.814" r="7.5" transform="rotate(30 1926.41 916.814)" fill="#0073DA" fill-opacity="0.7"/>
<circle cx="1965.38" cy="939.314" r="7.5" transform="rotate(30 1965.38 939.314)" fill="#0073DA" fill-opacity="0.7"/>
<circle cx="1590.14" cy="779.249" r="7.5" transform="rotate(30 1590.14 779.249)" fill="#0073DA" fill-opacity="0.7"/>
<circle cx="1629.12" cy="801.749" r="7.5" transform="rotate(30 1629.12 801.749)" fill="#0073DA" fill-opacity="0.7"/>
<circle cx="1668.09" cy="824.249" r="7.5" transform="rotate(30 1668.09 824.249)" fill="#0073DA" fill-opacity="0.7"/>
<circle cx="1707.06" cy="846.749" r="7.5" transform="rotate(30 1707.06 846.749)" fill="#0073DA" fill-opacity="0.7"/>
<circle cx="1746.03" cy="869.249" r="7.5" transform="rotate(30 1746.03 869.249)" fill="#0073DA" fill-opacity="0.7"/>
<circle cx="1785" cy="891.749" r="7.5" transform="rotate(30 1785 891.749)" fill="#0073DA" fill-opacity="0.7"/>
<circle cx="1823.97" cy="914.249" r="7.5" transform="rotate(30 1823.97 914.249)" fill="#0073DA" fill-opacity="0.7"/>
<circle cx="1862.94" cy="936.749" r="7.5" transform="rotate(30 1862.94 936.749)" fill="#0073DA" fill-opacity="0.7"/>
<circle cx="1901.91" cy="959.249" r="7.5" transform="rotate(30 1901.91 959.249)" fill="#0073DA" fill-opacity="0.7"/>
<circle cx="1940.88" cy="981.749" r="7.5" transform="rotate(30 1940.88 981.749)" fill="#0073DA" fill-opacity="0.7"/>
<circle cx="1565.64" cy="821.685" r="7.5" transform="rotate(30 1565.64 821.685)" fill="#0073DA" fill-opacity="0.7"/>
<circle cx="1604.62" cy="844.185" r="7.5" transform="rotate(30 1604.62 844.185)" fill="#0073DA" fill-opacity="0.7"/>
<circle cx="1643.59" cy="866.685" r="7.5" transform="rotate(30 1643.59 866.685)" fill="#0073DA" fill-opacity="0.7"/>
<circle cx="1682.56" cy="889.185" r="7.5" transform="rotate(30 1682.56 889.185)" fill="#0073DA" fill-opacity="0.7"/>
<circle cx="1721.53" cy="911.685" r="7.5" transform="rotate(30 1721.53 911.685)" fill="#0073DA" fill-opacity="0.7"/>
<circle cx="1760.5" cy="934.185" r="7.5" transform="rotate(30 1760.5 934.185)" fill="#0073DA" fill-opacity="0.7"/>
<circle cx="1799.47" cy="956.685" r="7.5" transform="rotate(30 1799.47 956.685)" fill="#0073DA" fill-opacity="0.7"/>
<circle cx="1838.44" cy="979.185" r="7.5" transform="rotate(30 1838.44 979.185)" fill="#0073DA" fill-opacity="0.7"/>
<circle cx="1877.41" cy="1001.68" r="7.5" transform="rotate(30 1877.41 1001.68)" fill="#0073DA" fill-opacity="0.7"/>
<circle cx="1916.38" cy="1024.18" r="7.5" transform="rotate(30 1916.38 1024.18)" fill="#0073DA" fill-opacity="0.7"/>
<circle cx="1541.14" cy="864.119" r="7.5" transform="rotate(30 1541.14 864.119)" fill="#0073DA" fill-opacity="0.7"/>
<circle cx="1580.12" cy="886.619" r="7.5" transform="rotate(30 1580.12 886.619)" fill="#0073DA" fill-opacity="0.7"/>
<circle cx="1619.09" cy="909.119" r="7.5" transform="rotate(30 1619.09 909.119)" fill="#0073DA" fill-opacity="0.7"/>
<circle cx="1658.06" cy="931.619" r="7.5" transform="rotate(30 1658.06 931.619)" fill="#0073DA" fill-opacity="0.7"/>
<circle cx="1697.03" cy="954.119" r="7.5" transform="rotate(30 1697.03 954.119)" fill="#0073DA" fill-opacity="0.7"/>
<circle cx="1736" cy="976.619" r="7.5" transform="rotate(30 1736 976.619)" fill="#0073DA" fill-opacity="0.7"/>
<circle cx="1774.97" cy="999.119" r="7.5" transform="rotate(30 1774.97 999.119)" fill="#0073DA" fill-opacity="0.7"/>
<circle cx="1813.94" cy="1021.62" r="7.5" transform="rotate(30 1813.94 1021.62)" fill="#0073DA" fill-opacity="0.7"/>
<circle cx="1852.91" cy="1044.12" r="7.5" transform="rotate(30 1852.91 1044.12)" fill="#0073DA" fill-opacity="0.7"/>
<circle cx="1891.88" cy="1066.62" r="7.5" transform="rotate(30 1891.88 1066.62)" fill="#0073DA" fill-opacity="0.7"/>
<circle cx="1516.64" cy="906.555" r="7.5" transform="rotate(30 1516.64 906.555)" fill="#0073DA" fill-opacity="0.7"/>
<circle cx="1555.62" cy="929.055" r="7.5" transform="rotate(30 1555.62 929.055)" fill="#0073DA" fill-opacity="0.7"/>
<circle cx="1594.59" cy="951.555" r="7.5" transform="rotate(30 1594.59 951.555)" fill="#0073DA" fill-opacity="0.7"/>
<circle cx="1633.56" cy="974.055" r="7.5" transform="rotate(30 1633.56 974.055)" fill="#0073DA" fill-opacity="0.7"/>
<circle cx="1672.53" cy="996.555" r="7.5" transform="rotate(30 1672.53 996.555)" fill="#0073DA" fill-opacity="0.7"/>
<circle cx="1711.5" cy="1019.05" r="7.5" transform="rotate(30 1711.5 1019.05)" fill="#0073DA" fill-opacity="0.7"/>
<circle cx="1750.47" cy="1041.55" r="7.5" transform="rotate(30 1750.47 1041.55)" fill="#0073DA" fill-opacity="0.7"/>
<circle cx="1789.44" cy="1064.05" r="7.5" transform="rotate(30 1789.44 1064.05)" fill="#0073DA" fill-opacity="0.7"/>
<circle cx="1828.41" cy="1086.55" r="7.5" transform="rotate(30 1828.41 1086.55)" fill="#0073DA" fill-opacity="0.7"/>
<circle cx="1867.38" cy="1109.05" r="7.5" transform="rotate(30 1867.38 1109.05)" fill="#0073DA" fill-opacity="0.7"/>
<circle cx="1492.14" cy="948.99" r="7.5" transform="rotate(30 1492.14 948.99)" fill="#0073DA" fill-opacity="0.7"/>
<circle cx="1531.12" cy="971.49" r="7.5" transform="rotate(30 1531.12 971.49)" fill="#0073DA" fill-opacity="0.7"/>
<circle cx="1570.09" cy="993.99" r="7.5" transform="rotate(30 1570.09 993.99)" fill="#0073DA" fill-opacity="0.7"/>
<circle cx="1609.06" cy="1016.49" r="7.5" transform="rotate(30 1609.06 1016.49)" fill="#0073DA" fill-opacity="0.7"/>
<circle cx="1648.03" cy="1038.99" r="7.5" transform="rotate(30 1648.03 1038.99)" fill="#0073DA" fill-opacity="0.7"/>
<circle cx="1687" cy="1061.49" r="7.5" transform="rotate(30 1687 1061.49)" fill="#0073DA" fill-opacity="0.7"/>
<circle cx="1725.97" cy="1083.99" r="7.5" transform="rotate(30 1725.97 1083.99)" fill="#0073DA" fill-opacity="0.7"/>
<circle cx="1764.94" cy="1106.49" r="7.5" transform="rotate(30 1764.94 1106.49)" fill="#0073DA" fill-opacity="0.7"/>
<circle cx="1803.91" cy="1128.99" r="7.5" transform="rotate(30 1803.91 1128.99)" fill="#0073DA" fill-opacity="0.7"/>
<circle cx="1842.88" cy="1151.49" r="7.5" transform="rotate(30 1842.88 1151.49)" fill="#0073DA" fill-opacity="0.7"/>
<circle cx="1467.64" cy="991.426" r="7.5" transform="rotate(30 1467.64 991.426)" fill="#0073DA" fill-opacity="0.7"/>
<circle cx="1506.62" cy="1013.93" r="7.5" transform="rotate(30 1506.62 1013.93)" fill="#0073DA" fill-opacity="0.7"/>
<circle cx="1545.59" cy="1036.43" r="7.5" transform="rotate(30 1545.59 1036.43)" fill="#0073DA" fill-opacity="0.7"/>
<circle cx="1584.56" cy="1058.93" r="7.5" transform="rotate(30 1584.56 1058.93)" fill="#0073DA" fill-opacity="0.7"/>
<circle cx="1623.53" cy="1081.43" r="7.5" transform="rotate(30 1623.53 1081.43)" fill="#0073DA" fill-opacity="0.7"/>
<circle cx="1662.5" cy="1103.93" r="7.5" transform="rotate(30 1662.5 1103.93)" fill="#0073DA" fill-opacity="0.7"/>
<circle cx="1701.47" cy="1126.43" r="7.5" transform="rotate(30 1701.47 1126.43)" fill="#0073DA" fill-opacity="0.7"/>
<circle cx="1740.44" cy="1148.93" r="7.5" transform="rotate(30 1740.44 1148.93)" fill="#0073DA" fill-opacity="0.7"/>
<circle cx="1779.41" cy="1171.43" r="7.5" transform="rotate(30 1779.41 1171.43)" fill="#0073DA" fill-opacity="0.7"/>
<circle cx="1818.38" cy="1193.93" r="7.5" transform="rotate(30 1818.38 1193.93)" fill="#0073DA" fill-opacity="0.7"/>
<circle cx="1443.14" cy="1033.86" r="7.5" transform="rotate(30 1443.14 1033.86)" fill="#0073DA" fill-opacity="0.7"/>
<circle cx="1482.12" cy="1056.36" r="7.5" transform="rotate(30 1482.12 1056.36)" fill="#0073DA" fill-opacity="0.7"/>
<circle cx="1521.09" cy="1078.86" r="7.5" transform="rotate(30 1521.09 1078.86)" fill="#0073DA" fill-opacity="0.7"/>
<circle cx="1560.06" cy="1101.36" r="7.5" transform="rotate(30 1560.06 1101.36)" fill="#0073DA" fill-opacity="0.7"/>
<circle cx="1599.03" cy="1123.86" r="7.5" transform="rotate(30 1599.03 1123.86)" fill="#0073DA" fill-opacity="0.7"/>
<circle cx="1638" cy="1146.36" r="7.5" transform="rotate(30 1638 1146.36)" fill="#0073DA" fill-opacity="0.7"/>
<circle cx="1676.97" cy="1168.86" r="7.5" transform="rotate(30 1676.97 1168.86)" fill="#0073DA" fill-opacity="0.7"/>
<circle cx="1715.94" cy="1191.36" r="7.5" transform="rotate(30 1715.94 1191.36)" fill="#0073DA" fill-opacity="0.7"/>
<circle cx="1754.91" cy="1213.86" r="7.5" transform="rotate(30 1754.91 1213.86)" fill="#0073DA" fill-opacity="0.7"/>
<circle cx="1793.88" cy="1236.36" r="7.5" transform="rotate(30 1793.88 1236.36)" fill="#0073DA" fill-opacity="0.7"/>
<circle cx="1418.64" cy="1076.3" r="7.5" transform="rotate(30 1418.64 1076.3)" fill="#0073DA" fill-opacity="0.7"/>
<circle cx="1457.62" cy="1098.8" r="7.5" transform="rotate(30 1457.62 1098.8)" fill="#0073DA" fill-opacity="0.7"/>
<circle cx="1496.59" cy="1121.3" r="7.5" transform="rotate(30 1496.59 1121.3)" fill="#0073DA" fill-opacity="0.7"/>
<circle cx="1535.56" cy="1143.8" r="7.5" transform="rotate(30 1535.56 1143.8)" fill="#0073DA" fill-opacity="0.7"/>
<circle cx="1574.53" cy="1166.3" r="7.5" transform="rotate(30 1574.53 1166.3)" fill="#0073DA" fill-opacity="0.7"/>
<circle cx="1613.5" cy="1188.8" r="7.5" transform="rotate(30 1613.5 1188.8)" fill="#0073DA" fill-opacity="0.7"/>
<circle cx="1652.47" cy="1211.3" r="7.5" transform="rotate(30 1652.47 1211.3)" fill="#0073DA" fill-opacity="0.7"/>
<circle cx="1691.44" cy="1233.8" r="7.5" transform="rotate(30 1691.44 1233.8)" fill="#0073DA" fill-opacity="0.7"/>
<circle cx="1730.41" cy="1256.3" r="7.5" transform="rotate(30 1730.41 1256.3)" fill="#0073DA" fill-opacity="0.7"/>
<circle cx="1769.38" cy="1278.8" r="7.5" transform="rotate(30 1769.38 1278.8)" fill="#0073DA" fill-opacity="0.7"/>
<circle cx="1394.14" cy="1118.73" r="7.5" transform="rotate(30 1394.14 1118.73)" fill="#0073DA" fill-opacity="0.7"/>
<circle cx="1433.12" cy="1141.23" r="7.5" transform="rotate(30 1433.12 1141.23)" fill="#0073DA" fill-opacity="0.7"/>
<circle cx="1472.09" cy="1163.73" r="7.5" transform="rotate(30 1472.09 1163.73)" fill="#0073DA" fill-opacity="0.7"/>
<circle cx="1511.06" cy="1186.23" r="7.5" transform="rotate(30 1511.06 1186.23)" fill="#0073DA" fill-opacity="0.7"/>
<circle cx="1550.03" cy="1208.73" r="7.5" transform="rotate(30 1550.03 1208.73)" fill="#0073DA" fill-opacity="0.7"/>
<circle cx="1589" cy="1231.23" r="7.5" transform="rotate(30 1589 1231.23)" fill="#0073DA" fill-opacity="0.7"/>
<circle cx="1627.97" cy="1253.73" r="7.5" transform="rotate(30 1627.97 1253.73)" fill="#0073DA" fill-opacity="0.7"/>
<circle cx="1666.94" cy="1276.23" r="7.5" transform="rotate(30 1666.94 1276.23)" fill="#0073DA" fill-opacity="0.7"/>
<circle cx="1705.91" cy="1298.73" r="7.5" transform="rotate(30 1705.91 1298.73)" fill="#0073DA" fill-opacity="0.7"/>
<circle cx="1744.88" cy="1321.23" r="7.5" transform="rotate(30 1744.88 1321.23)" fill="#0073DA" fill-opacity="0.7"/>
<path d="M1920.44 97.5C1920.44 151.348 1876.79 195 1822.94 195C1769.09 195 1725.44 151.348 1725.44 97.5C1725.44 43.6522 1769.09 0 1822.94 0C1876.79 0 1920.44 43.6522 1920.44 97.5Z" fill="#0073DA"/>
<path d="M1723.44 101.708L1697.06 128.563C1696.79 128.838 1696.32 128.717 1696.22 128.346L1686.16 92.0666C1686.05 91.6957 1686.39 91.3525 1686.76 91.4489L1723.21 100.873C1723.59 100.969 1723.71 101.433 1723.44 101.708Z" stroke="#4C9DE5" stroke-width="5"/>
<ellipse cx="226.5" cy="1085" rx="226.5" ry="226" fill="#0073DA"/>
<path d="M467 973.5C467 1004.15 442.152 1029 411.5 1029C380.848 1029 356 1004.15 356 973.5C356 942.848 380.848 918 411.5 918C442.152 918 467 942.848 467 973.5ZM364.132 973.5C364.132 999.66 385.34 1020.87 411.5 1020.87C437.66 1020.87 458.868 999.66 458.868 973.5C458.868 947.34 437.66 926.132 411.5 926.132C385.34 926.132 364.132 947.34 364.132 973.5Z" fill="#4C9DE5"/>
</svg>
