<svg width="238" height="195" viewBox="0 0 238 195" fill="none" xmlns="http://www.w3.org/2000/svg">
<path fill-rule="evenodd" clip-rule="evenodd" d="M139.94 195C193.788 195 237.44 151.348 237.44 97.5C237.44 43.6522 193.788 0 139.94 0C86.0927 0 42.4404 43.6522 42.4404 97.5C42.4404 98.1734 42.4473 98.8452 42.4608 99.5154C42.0771 99.0171 41.5275 98.6303 40.8392 98.4524L4.3879 89.0283C2.15202 88.4502 0.128816 90.5093 0.746138 92.7347L10.8103 129.015C11.4276 131.24 14.2224 131.962 15.841 130.315L42.2282 103.459C42.3675 103.318 42.4891 103.168 42.5936 103.011C45.4511 154.295 87.9422 195 139.94 195ZM6.49018 94.7362L36.2339 102.426L14.7023 124.34L6.49018 94.7362Z" fill="#0073DA"/>
</svg>
