<svg width="20" height="20" viewBox="0 0 20 20" fill="none" xmlns="http://www.w3.org/2000/svg">
<path d="M15.8333 2.5H4.16667C3.24167 2.5 2.5 3.25 2.5 4.16667V15.8333C2.5 16.75 3.24167 17.5 4.16667 17.5H15.8333C16.75 17.5 17.5 16.75 17.5 15.8333V4.16667C17.5 3.25 16.75 2.5 15.8333 2.5ZM15.8333 15.8333H4.16667V4.16667H15.8333V15.8333ZM9.16667 14.1667H10.8333V10.8333H14.1667V9.16667H10.8333V5.83333H9.16667V9.16667H5.83333V10.8333H9.16667V14.1667Z" fill="#121212"/>
<path d="M15.8333 16.3333H16.3333V15.8333V4.16667V3.66667H15.8333H4.16667H3.66667V4.16667V15.8333V16.3333H4.16667H15.8333ZM10.8333 10.3333H10.3333V10.8333V13.6667H9.66667V10.8333V10.3333H9.16667H6.33333V9.66667H9.16667H9.66667V9.16667V6.33333H10.3333V9.16667V9.66667H10.8333H13.6667V10.3333H10.8333ZM4.16667 3H15.8333C16.4739 3 17 3.52614 17 4.16667V15.8333C17 16.4739 16.4739 17 15.8333 17H4.16667C3.51944 17 3 16.4755 3 15.8333V4.16667C3 3.52451 3.51944 3 4.16667 3Z" stroke="#0050BB"/>
</svg>
