<svg width="18" height="18" viewBox="0 0 18 18" fill="none" xmlns="http://www.w3.org/2000/svg">
<path d="M12.7118 11.2549H11.9239L11.6447 10.9849C12.622 9.84488 13.2104 8.36488 13.2104 6.75488C13.2104 3.16488 10.3084 0.254883 6.72824 0.254883C3.1481 0.254883 0.246094 3.16488 0.246094 6.75488C0.246094 10.3449 3.1481 13.2549 6.72824 13.2549C8.33381 13.2549 9.80975 12.6649 10.9466 11.6849L11.2159 11.9649V12.7549L16.2021 17.7449L17.688 16.2549L12.7118 11.2549ZM6.72824 11.2549C4.24508 11.2549 2.2406 9.24488 2.2406 6.75488C2.2406 4.26488 4.24508 2.25488 6.72824 2.25488C9.2114 2.25488 11.2159 4.26488 11.2159 6.75488C11.2159 9.24488 9.2114 11.2549 6.72824 11.2549Z" fill="#121212"/>
</svg>
